<svg width="300" height="59" viewBox="0 0 300 59" fill="none" xmlns="http://www.w3.org/2000/svg">
<path d="M0.78561 20V0.259999H2.57761L14.4776 16.136V0.259999H16.6056V20H14.8696L2.94161 4.068V20H0.78561ZM25.4882 20.252C24.5548 20.252 23.7148 20.0747 22.9682 19.72C22.2402 19.3467 21.6615 18.8427 21.2322 18.208C20.8028 17.5733 20.5882 16.864 20.5882 16.08C20.5882 15.0907 20.8402 14.3067 21.3442 13.728C21.8668 13.1493 22.7162 12.7387 23.8922 12.496C25.0868 12.2347 26.7108 12.104 28.7642 12.104H29.6602V11.236C29.6602 10.0787 29.4175 9.248 28.9322 8.744C28.4655 8.22133 27.7095 7.96 26.6642 7.96C25.8428 7.96 25.0495 8.08133 24.2842 8.324C23.5188 8.548 22.7348 8.92133 21.9322 9.444L21.1482 7.792C21.8575 7.288 22.7162 6.88667 23.7242 6.588C24.7508 6.28933 25.7308 6.14 26.6642 6.14C28.4188 6.14 29.7162 6.56933 30.5562 7.428C31.4148 8.28667 31.8442 9.62133 31.8442 11.432V20H29.7162V17.648C29.3615 18.4507 28.8108 19.0853 28.0642 19.552C27.3362 20.0187 26.4775 20.252 25.4882 20.252ZM25.8522 18.544C26.9722 18.544 27.8868 18.1613 28.5962 17.396C29.3055 16.612 29.6602 15.6227 29.6602 14.428V13.588H28.7922C27.2802 13.588 26.0855 13.6627 25.2082 13.812C24.3495 13.9427 23.7428 14.1853 23.3882 14.54C23.0522 14.876 22.8842 15.3427 22.8842 15.94C22.8842 16.7053 23.1455 17.3307 23.6682 17.816C24.2095 18.3013 24.9375 18.544 25.8522 18.544ZM36.0518 25.04V6.392H38.2638V8.828C38.6745 7.988 39.2812 7.33467 40.0838 6.868C40.9052 6.38267 41.8572 6.14 42.9398 6.14C44.1532 6.14 45.2078 6.42933 46.1038 7.008C47.0185 7.568 47.7185 8.38 48.2038 9.444C48.7078 10.4893 48.9598 11.74 48.9598 13.196C48.9598 14.6333 48.7078 15.884 48.2038 16.948C47.7185 17.9933 47.0185 18.8053 46.1038 19.384C45.2078 19.9627 44.1532 20.252 42.9398 20.252C41.8945 20.252 40.9612 20.0187 40.1398 19.552C39.3185 19.0853 38.7118 18.4413 38.3198 17.62V25.04H36.0518ZM42.4638 18.432C43.7332 18.432 44.7505 17.984 45.5158 17.088C46.2812 16.1733 46.6638 14.876 46.6638 13.196C46.6638 11.4973 46.2812 10.2 45.5158 9.304C44.7505 8.408 43.7332 7.96 42.4638 7.96C41.1945 7.96 40.1772 8.408 39.4118 9.304C38.6465 10.2 38.2638 11.4973 38.2638 13.196C38.2638 14.876 38.6465 16.1733 39.4118 17.088C40.1772 17.984 41.1945 18.432 42.4638 18.432ZM56.66 20.252C55.7267 20.252 54.8867 20.0747 54.14 19.72C53.412 19.3467 52.8334 18.8427 52.404 18.208C51.9747 17.5733 51.76 16.864 51.76 16.08C51.76 15.0907 52.012 14.3067 52.516 13.728C53.0387 13.1493 53.888 12.7387 55.064 12.496C56.2587 12.2347 57.8827 12.104 59.936 12.104H60.832V11.236C60.832 10.0787 60.5894 9.248 60.104 8.744C59.6374 8.22133 58.8814 7.96 57.836 7.96C57.0147 7.96 56.2214 8.08133 55.456 8.324C54.6907 8.548 53.9067 8.92133 53.104 9.444L52.32 7.792C53.0294 7.288 53.888 6.88667 54.896 6.588C55.9227 6.28933 56.9027 6.14 57.836 6.14C59.5907 6.14 60.888 6.56933 61.728 7.428C62.5867 8.28667 63.016 9.62133 63.016 11.432V20H60.888V17.648C60.5334 18.4507 59.9827 19.0853 59.236 19.552C58.508 20.0187 57.6494 20.252 56.66 20.252ZM57.024 18.544C58.144 18.544 59.0587 18.1613 59.768 17.396C60.4774 16.612 60.832 15.6227 60.832 14.428V13.588H59.964C58.452 13.588 57.2574 13.6627 56.38 13.812C55.5214 13.9427 54.9147 14.1853 54.56 14.54C54.224 14.876 54.056 15.3427 54.056 15.94C54.056 16.7053 54.3174 17.3307 54.84 17.816C55.3814 18.3013 56.1094 18.544 57.024 18.544ZM80.8831 20L72.2591 0.259999H74.7231L81.9751 17.088L89.1991 0.259999H91.6071L82.9551 20H80.8831ZM96.4179 20.252C95.4845 20.252 94.6445 20.0747 93.8979 19.72C93.1699 19.3467 92.5912 18.8427 92.1619 18.208C91.7325 17.5733 91.5179 16.864 91.5179 16.08C91.5179 15.0907 91.7699 14.3067 92.2739 13.728C92.7965 13.1493 93.6459 12.7387 94.8219 12.496C96.0165 12.2347 97.6405 12.104 99.6939 12.104H100.59V11.236C100.59 10.0787 100.347 9.248 99.8619 8.744C99.3952 8.22133 98.6392 7.96 97.5939 7.96C96.7725 7.96 95.9792 8.08133 95.2139 8.324C94.4485 8.548 93.6645 8.92133 92.8619 9.444L92.0779 7.792C92.7872 7.288 93.6459 6.88667 94.6539 6.588C95.6805 6.28933 96.6605 6.14 97.5939 6.14C99.3485 6.14 100.646 6.56933 101.486 7.428C102.345 8.28667 102.774 9.62133 102.774 11.432V20H100.646V17.648C100.291 18.4507 99.7405 19.0853 98.9939 19.552C98.2659 20.0187 97.4072 20.252 96.4179 20.252ZM96.7819 18.544C97.9019 18.544 98.8165 18.1613 99.5259 17.396C100.235 16.612 100.59 15.6227 100.59 14.428V13.588H99.7219C98.2099 13.588 97.0152 13.6627 96.1379 13.812C95.2792 13.9427 94.6725 14.1853 94.3179 14.54C93.9819 14.876 93.8139 15.3427 93.8139 15.94C93.8139 16.7053 94.0752 17.3307 94.5979 17.816C95.1392 18.3013 95.8672 18.544 96.7819 18.544ZM111.154 20.252C109.772 20.252 108.727 19.8507 108.018 19.048C107.327 18.2267 106.982 17.0413 106.982 15.492V0.259999H109.25V15.324C109.25 17.3213 110.043 18.32 111.63 18.32C112.096 18.32 112.516 18.264 112.89 18.152L112.834 20.056C112.255 20.1867 111.695 20.252 111.154 20.252ZM119.439 20.252C118.057 20.252 117.012 19.8507 116.303 19.048C115.612 18.2267 115.267 17.0413 115.267 15.492V0.259999H117.535V15.324C117.535 17.3213 118.328 18.32 119.915 18.32C120.381 18.32 120.801 18.264 121.175 18.152L121.119 20.056C120.54 20.1867 119.98 20.252 119.439 20.252ZM129.547 20.252C127.4 20.252 125.702 19.6267 124.451 18.376C123.2 17.1067 122.575 15.3893 122.575 13.224C122.575 11.824 122.855 10.592 123.415 9.528C123.975 8.44533 124.74 7.61467 125.711 7.036C126.7 6.43867 127.839 6.14 129.127 6.14C130.975 6.14 132.422 6.73733 133.467 7.932C134.512 9.108 135.035 10.732 135.035 12.804V13.672H124.787C124.862 15.2213 125.31 16.4067 126.131 17.228C126.952 18.0307 128.091 18.432 129.547 18.432C130.368 18.432 131.152 18.3107 131.899 18.068C132.646 17.8067 133.355 17.3867 134.027 16.808L134.811 18.404C134.195 18.9827 133.411 19.44 132.459 19.776C131.507 20.0933 130.536 20.252 129.547 20.252ZM129.183 7.82C127.895 7.82 126.878 8.22133 126.131 9.024C125.384 9.82667 124.946 10.8813 124.815 12.188H133.075C133.019 10.8067 132.655 9.73333 131.983 8.968C131.33 8.20267 130.396 7.82 129.183 7.82ZM139.721 25.04L142.045 19.776L136.305 6.392H138.769L143.277 17.424L147.813 6.392H150.193L142.101 25.04H139.721ZM160.036 20V0.259999H172.496V2.192H162.276V9.024H171.908V10.956H162.276V18.068H172.496V20H160.036ZM180.224 20.252C178.842 20.252 177.797 19.8507 177.088 19.048C176.397 18.2267 176.052 17.0413 176.052 15.492V0.259999H178.32V15.324C178.32 17.3213 179.113 18.32 180.7 18.32C181.166 18.32 181.586 18.264 181.96 18.152L181.904 20.056C181.325 20.1867 180.765 20.252 180.224 20.252ZM190.332 20.252C188.186 20.252 186.487 19.6267 185.236 18.376C183.986 17.1067 183.36 15.3893 183.36 13.224C183.36 11.824 183.64 10.592 184.2 9.528C184.76 8.44533 185.526 7.61467 186.496 7.036C187.486 6.43867 188.624 6.14 189.912 6.14C191.76 6.14 193.207 6.73733 194.252 7.932C195.298 9.108 195.82 10.732 195.82 12.804V13.672H185.572C185.647 15.2213 186.095 16.4067 186.916 17.228C187.738 18.0307 188.876 18.432 190.332 18.432C191.154 18.432 191.938 18.3107 192.684 18.068C193.431 17.8067 194.14 17.3867 194.812 16.808L195.596 18.404C194.98 18.9827 194.196 19.44 193.244 19.776C192.292 20.0933 191.322 20.252 190.332 20.252ZM189.968 7.82C188.68 7.82 187.663 8.22133 186.916 9.024C186.17 9.82667 185.731 10.8813 185.6 12.188H193.86C193.804 10.8067 193.44 9.73333 192.768 8.968C192.115 8.20267 191.182 7.82 189.968 7.82ZM204.871 20.252C203.508 20.252 202.332 19.9627 201.343 19.384C200.353 18.7867 199.588 17.956 199.047 16.892C198.524 15.8093 198.263 14.5493 198.263 13.112C198.263 10.9467 198.851 9.248 200.027 8.016C201.203 6.76533 202.817 6.14 204.871 6.14C205.711 6.14 206.541 6.28933 207.363 6.588C208.184 6.88667 208.865 7.30667 209.407 7.848L208.623 9.5C208.081 8.97733 207.484 8.59467 206.831 8.352C206.196 8.10933 205.589 7.988 205.011 7.988C203.592 7.988 202.5 8.436 201.735 9.332C200.969 10.2093 200.587 11.4787 200.587 13.14C200.587 14.764 200.969 16.052 201.735 17.004C202.5 17.9373 203.592 18.404 205.011 18.404C205.589 18.404 206.196 18.2827 206.831 18.04C207.484 17.7973 208.081 17.4053 208.623 16.864L209.407 18.516C208.865 19.0573 208.175 19.4867 207.335 19.804C206.513 20.1027 205.692 20.252 204.871 20.252ZM217.524 20.252C215.918 20.252 214.714 19.832 213.912 18.992C213.109 18.1333 212.708 16.9013 212.708 15.296V8.156H210.048V6.392H212.708V2.22H214.976V6.392H219.288V8.156H214.976V15.072C214.976 16.136 215.2 16.948 215.648 17.508C216.096 18.0493 216.824 18.32 217.832 18.32C218.13 18.32 218.429 18.2827 218.728 18.208C219.026 18.1333 219.297 18.0587 219.54 17.984L219.932 19.72C219.689 19.8507 219.334 19.972 218.868 20.084C218.401 20.196 217.953 20.252 217.524 20.252ZM221.853 20V6.392H224.065V8.828C224.793 7.18533 226.286 6.28 228.545 6.112L229.357 6.028L229.525 7.988L228.097 8.156C226.809 8.268 225.829 8.67867 225.157 9.388C224.485 10.0787 224.149 11.0307 224.149 12.244V20H221.853ZM237.38 20.252C236.054 20.252 234.906 19.9627 233.936 19.384C232.965 18.8053 232.209 17.9933 231.668 16.948C231.145 15.884 230.884 14.6333 230.884 13.196C230.884 11.7587 231.145 10.5173 231.668 9.472C232.209 8.408 232.965 7.58667 233.936 7.008C234.906 6.42933 236.054 6.14 237.38 6.14C238.686 6.14 239.825 6.42933 240.796 7.008C241.785 7.58667 242.541 8.408 243.064 9.472C243.605 10.5173 243.876 11.7587 243.876 13.196C243.876 14.6333 243.605 15.884 243.064 16.948C242.541 17.9933 241.785 18.8053 240.796 19.384C239.825 19.9627 238.686 20.252 237.38 20.252ZM237.38 18.432C238.649 18.432 239.666 17.984 240.432 17.088C241.197 16.1733 241.58 14.876 241.58 13.196C241.58 11.4973 241.197 10.2 240.432 9.304C239.666 8.408 238.649 7.96 237.38 7.96C236.092 7.96 235.065 8.408 234.3 9.304C233.553 10.2 233.18 11.4973 233.18 13.196C233.18 14.876 233.553 16.1733 234.3 17.088C235.065 17.984 236.092 18.432 237.38 18.432ZM251.454 20.252C250.073 20.252 249.028 19.8507 248.318 19.048C247.628 18.2267 247.282 17.0413 247.282 15.492V0.259999H249.55V15.324C249.55 17.3213 250.344 18.32 251.93 18.32C252.397 18.32 252.817 18.264 253.19 18.152L253.134 20.056C252.556 20.1867 251.996 20.252 251.454 20.252ZM261.087 20.252C259.761 20.252 258.613 19.9627 257.643 19.384C256.672 18.8053 255.916 17.9933 255.375 16.948C254.852 15.884 254.591 14.6333 254.591 13.196C254.591 11.7587 254.852 10.5173 255.375 9.472C255.916 8.408 256.672 7.58667 257.643 7.008C258.613 6.42933 259.761 6.14 261.087 6.14C262.393 6.14 263.532 6.42933 264.503 7.008C265.492 7.58667 266.248 8.408 266.771 9.472C267.312 10.5173 267.583 11.7587 267.583 13.196C267.583 14.6333 267.312 15.884 266.771 16.948C266.248 17.9933 265.492 18.8053 264.503 19.384C263.532 19.9627 262.393 20.252 261.087 20.252ZM261.087 18.432C262.356 18.432 263.373 17.984 264.139 17.088C264.904 16.1733 265.287 14.876 265.287 13.196C265.287 11.4973 264.904 10.2 264.139 9.304C263.373 8.408 262.356 7.96 261.087 7.96C259.799 7.96 258.772 8.408 258.007 9.304C257.26 10.2 256.887 11.4973 256.887 13.196C256.887 14.876 257.26 16.1733 258.007 17.088C258.772 17.984 259.799 18.432 261.087 18.432ZM277.009 25.292C275.833 25.292 274.723 25.1333 273.677 24.816C272.651 24.5173 271.736 24.06 270.933 23.444L271.689 21.792C272.529 22.3893 273.36 22.8187 274.181 23.08C275.021 23.3413 275.927 23.472 276.897 23.472C279.585 23.472 280.929 22.0907 280.929 19.328V16.92C280.537 17.7787 279.921 18.46 279.081 18.964C278.26 19.4493 277.317 19.692 276.253 19.692C275.003 19.692 273.92 19.4027 273.005 18.824C272.091 18.2453 271.381 17.452 270.877 16.444C270.392 15.4173 270.149 14.232 270.149 12.888C270.149 11.544 270.392 10.368 270.877 9.36C271.381 8.33333 272.091 7.54 273.005 6.98C273.92 6.42 275.003 6.14 276.253 6.14C277.317 6.14 278.26 6.38267 279.081 6.868C279.921 7.35333 280.537 8.016 280.929 8.856V6.392H283.141V19.02C283.141 21.1107 282.619 22.6787 281.573 23.724C280.547 24.7693 279.025 25.292 277.009 25.292ZM276.673 17.844C277.98 17.844 279.016 17.396 279.781 16.5C280.547 15.604 280.929 14.4 280.929 12.888C280.929 11.376 280.547 10.1813 279.781 9.304C279.016 8.408 277.98 7.96 276.673 7.96C275.385 7.96 274.359 8.408 273.593 9.304C272.828 10.1813 272.445 11.376 272.445 12.888C272.445 14.4 272.828 15.604 273.593 16.5C274.359 17.396 275.385 17.844 276.673 17.844ZM288.964 25.04L291.288 19.776L285.548 6.392H288.012L292.52 17.424L297.056 6.392H299.436L291.344 25.04H288.964ZM84.3016 58.252C82.323 58.252 80.7736 57.7947 79.6536 56.88C78.5523 55.9653 78.0016 54.7613 78.0016 53.268C78.0016 51.9987 78.347 50.9067 79.0376 49.992C79.7283 49.0773 80.7643 48.1627 82.1456 47.248L82.5656 46.968C81.7256 46.0533 81.1376 45.2413 80.8016 44.532C80.4656 43.8227 80.2976 43.104 80.2976 42.376C80.2976 41.0693 80.7363 40.0147 81.6136 39.212C82.491 38.4093 83.667 38.008 85.1416 38.008C86.4296 38.008 87.4843 38.372 88.3056 39.1C89.1456 39.8093 89.5656 40.78 89.5656 42.012C89.5656 42.9827 89.2856 43.8787 88.7256 44.7C88.1656 45.5027 87.139 46.3707 85.6456 47.304L90.2376 52.484C90.6296 51.7 90.947 50.7853 91.1896 49.74C91.4323 48.6947 91.5723 47.5933 91.6096 46.436H93.5696C93.5323 47.892 93.3363 49.264 92.9816 50.552C92.6456 51.8213 92.1976 52.9413 91.6376 53.912L95.4176 58H92.6456L90.4336 55.508C89.6496 56.3853 88.735 57.0667 87.6896 57.552C86.6443 58.0187 85.515 58.252 84.3016 58.252ZM85.1416 39.772C84.339 39.772 83.6856 40.0053 83.1816 40.472C82.6776 40.9387 82.4256 41.5547 82.4256 42.32C82.4256 42.712 82.4816 43.076 82.5936 43.412C82.7056 43.7293 82.9016 44.0933 83.1816 44.504C83.4803 44.896 83.8816 45.3813 84.3856 45.96C85.5616 45.2133 86.383 44.5507 86.8496 43.972C87.335 43.3933 87.5776 42.7773 87.5776 42.124C87.5776 41.396 87.3536 40.8267 86.9056 40.416C86.4576 39.9867 85.8696 39.772 85.1416 39.772ZM84.4136 56.376C86.3363 56.376 87.9043 55.6293 89.1176 54.136L83.8256 48.368L83.4896 48.592C82.295 49.376 81.455 50.0947 80.9696 50.748C80.4843 51.4013 80.2416 52.1853 80.2416 53.1C80.2416 54.1267 80.5963 54.9293 81.3056 55.508C82.015 56.0867 83.051 56.376 84.4136 56.376ZM111.691 58.252C110.142 58.252 108.742 58.056 107.491 57.664C106.24 57.2533 105.158 56.6653 104.243 55.9L105.055 54.052C106.007 54.78 107.006 55.3213 108.051 55.676C109.096 56.0307 110.31 56.208 111.691 56.208C113.371 56.208 114.612 55.9 115.415 55.284C116.236 54.6493 116.647 53.8187 116.647 52.792C116.647 51.9707 116.348 51.3173 115.751 50.832C115.172 50.3467 114.192 49.964 112.811 49.684L109.899 49.096C108.144 48.7227 106.828 48.116 105.951 47.276C105.092 46.4173 104.663 45.2787 104.663 43.86C104.663 42.684 104.962 41.6573 105.559 40.78C106.175 39.9027 107.024 39.2213 108.107 38.736C109.19 38.2507 110.44 38.008 111.859 38.008C113.184 38.008 114.416 38.2227 115.555 38.652C116.694 39.0627 117.655 39.66 118.439 40.444L117.627 42.236C116.787 41.4707 115.9 40.92 114.967 40.584C114.034 40.2293 112.988 40.052 111.831 40.052C110.356 40.052 109.18 40.3973 108.303 41.088C107.426 41.76 106.987 42.656 106.987 43.776C106.987 44.672 107.258 45.3813 107.799 45.904C108.359 46.4267 109.264 46.8093 110.515 47.052L113.427 47.668C115.312 48.06 116.703 48.6573 117.599 49.46C118.514 50.244 118.971 51.3173 118.971 52.68C118.971 53.7813 118.672 54.752 118.075 55.592C117.496 56.432 116.656 57.0853 115.555 57.552C114.472 58.0187 113.184 58.252 111.691 58.252ZM122.226 58V38.26H124.494V50.44H124.55L130.85 44.392H133.734L126.902 50.944L134.322 58H131.438L124.55 51.616H124.494V58H122.226ZM135.946 41.004V38.456H138.746V41.004H135.946ZM136.226 58V44.392H138.494V58H136.226ZM142.733 58V44.392H144.945V46.716C145.393 45.8573 146.028 45.2133 146.849 44.784C147.671 44.3547 148.595 44.14 149.621 44.14C152.851 44.14 154.465 45.932 154.465 49.516V58H152.197V49.656C152.197 48.3867 151.945 47.4627 151.441 46.884C150.956 46.2867 150.172 45.988 149.089 45.988C147.839 45.988 146.84 46.38 146.093 47.164C145.365 47.9293 145.001 48.956 145.001 50.244V58H142.733ZM174.687 58.252C172.746 58.252 171.084 57.8413 169.703 57.02C168.322 56.1987 167.258 55.032 166.511 53.52C165.783 52.008 165.419 50.2067 165.419 48.116C165.419 46.044 165.783 44.252 166.511 42.74C167.258 41.228 168.322 40.0613 169.703 39.24C171.084 38.4187 172.746 38.008 174.687 38.008C176.05 38.008 177.3 38.2227 178.439 38.652C179.596 39.0813 180.576 39.7067 181.379 40.528L180.483 42.404C179.624 41.6013 178.728 41.0227 177.795 40.668C176.88 40.2947 175.863 40.108 174.743 40.108C172.522 40.108 170.823 40.808 169.647 42.208C168.471 43.608 167.883 45.5773 167.883 48.116C167.883 50.6733 168.471 52.652 169.647 54.052C170.823 55.452 172.522 56.152 174.743 56.152C175.863 56.152 176.88 55.9747 177.795 55.62C178.728 55.2467 179.624 54.6587 180.483 53.856L181.379 55.732C180.576 56.5347 179.596 57.16 178.439 57.608C177.3 58.0373 176.05 58.252 174.687 58.252ZM188.525 58.252C187.592 58.252 186.752 58.0747 186.005 57.72C185.277 57.3467 184.699 56.8427 184.269 56.208C183.84 55.5733 183.625 54.864 183.625 54.08C183.625 53.0907 183.877 52.3067 184.381 51.728C184.904 51.1493 185.753 50.7387 186.929 50.496C188.124 50.2347 189.748 50.104 191.801 50.104H192.697V49.236C192.697 48.0787 192.455 47.248 191.969 46.744C191.503 46.2213 190.747 45.96 189.701 45.96C188.88 45.96 188.087 46.0813 187.321 46.324C186.556 46.548 185.772 46.9213 184.969 47.444L184.185 45.792C184.895 45.288 185.753 44.8867 186.761 44.588C187.788 44.2893 188.768 44.14 189.701 44.14C191.456 44.14 192.753 44.5693 193.593 45.428C194.452 46.2867 194.881 47.6213 194.881 49.432V58H192.753V55.648C192.399 56.4507 191.848 57.0853 191.101 57.552C190.373 58.0187 189.515 58.252 188.525 58.252ZM188.889 56.544C190.009 56.544 190.924 56.1613 191.633 55.396C192.343 54.612 192.697 53.6227 192.697 52.428V51.588H191.829C190.317 51.588 189.123 51.6627 188.245 51.812C187.387 51.9427 186.78 52.1853 186.425 52.54C186.089 52.876 185.921 53.3427 185.921 53.94C185.921 54.7053 186.183 55.3307 186.705 55.816C187.247 56.3013 187.975 56.544 188.889 56.544ZM199.089 58V44.392H201.301V46.828C202.029 45.1853 203.522 44.28 205.781 44.112L206.593 44.028L206.761 45.988L205.333 46.156C204.045 46.268 203.065 46.6787 202.393 47.388C201.721 48.0787 201.385 49.0307 201.385 50.244V58H199.089ZM215.092 58.252C212.945 58.252 211.247 57.6267 209.996 56.376C208.745 55.1067 208.12 53.3893 208.12 51.224C208.12 49.824 208.4 48.592 208.96 47.528C209.52 46.4453 210.285 45.6147 211.256 45.036C212.245 44.4387 213.384 44.14 214.672 44.14C216.52 44.14 217.967 44.7373 219.012 45.932C220.057 47.108 220.58 48.732 220.58 50.804V51.672H210.332C210.407 53.2213 210.855 54.4067 211.676 55.228C212.497 56.0307 213.636 56.432 215.092 56.432C215.913 56.432 216.697 56.3107 217.444 56.068C218.191 55.8067 218.9 55.3867 219.572 54.808L220.356 56.404C219.74 56.9827 218.956 57.44 218.004 57.776C217.052 58.0933 216.081 58.252 215.092 58.252ZM214.728 45.82C213.44 45.82 212.423 46.2213 211.676 47.024C210.929 47.8267 210.491 48.8813 210.36 50.188H218.62C218.564 48.8067 218.2 47.7333 217.528 46.968C216.875 46.2027 215.941 45.82 214.728 45.82Z" fill="#978779"/>
</svg>
