<svg width="316" height="68" viewBox="0 0 316 68" fill="none" xmlns="http://www.w3.org/2000/svg">
<path d="M2.35813 61V40.6364H15.6025V43.7287H6.04705V49.2571H14.9164V52.3494H6.04705V57.9077H15.682V61H2.35813ZM22.8063 40.6364V61H19.2069V40.6364H22.8063ZM33.269 61.2983C31.7377 61.2983 30.4153 60.9801 29.3017 60.3438C28.1947 59.7008 27.3429 58.7926 26.7463 57.6193C26.1497 56.4394 25.8514 55.0507 25.8514 53.4531C25.8514 51.8821 26.1497 50.5033 26.7463 49.3168C27.3495 48.1236 28.1913 47.1955 29.2718 46.5327C30.3523 45.8632 31.6217 45.5284 33.0801 45.5284C34.0214 45.5284 34.9096 45.6809 35.7449 45.9858C36.5867 46.2841 37.3291 46.7481 37.9721 47.3778C38.6217 48.0076 39.1322 48.8097 39.5034 49.7841C39.8746 50.7519 40.0602 51.9053 40.0602 53.2443V54.348H27.5417V51.9219H36.6099C36.6033 51.2325 36.4541 50.6193 36.1625 50.0824C35.8708 49.5388 35.4631 49.1113 34.9395 48.7997C34.4224 48.4882 33.8192 48.3324 33.1298 48.3324C32.394 48.3324 31.7477 48.5114 31.1909 48.8693C30.6341 49.2206 30.1999 49.6847 29.8883 50.2614C29.5834 50.8314 29.4276 51.4579 29.421 52.1406V54.2585C29.421 55.1468 29.5834 55.9091 29.9082 56.5455C30.233 57.1752 30.6871 57.6591 31.2704 57.9972C31.8538 58.3286 32.5365 58.4943 33.3187 58.4943C33.8424 58.4943 34.3163 58.4214 34.7406 58.2756C35.1648 58.1231 35.5327 57.901 35.8443 57.6094C36.1558 57.3177 36.3912 56.9564 36.5502 56.5256L39.911 56.9034C39.6989 57.7917 39.2946 58.5672 38.698 59.2301C38.108 59.8864 37.3523 60.3968 36.4309 60.7614C35.5095 61.1193 34.4556 61.2983 33.269 61.2983ZM49.7672 61.2983C48.2426 61.2983 46.9334 60.9635 45.8397 60.294C44.7525 59.6245 43.914 58.6998 43.324 57.5199C42.7407 56.3333 42.449 54.9678 42.449 53.4233C42.449 51.8722 42.7473 50.5033 43.3439 49.3168C43.9405 48.1236 44.7824 47.1955 45.8695 46.5327C46.9632 45.8632 48.2559 45.5284 49.7473 45.5284C50.9869 45.5284 52.084 45.7571 53.0385 46.2145C53.9997 46.6652 54.7653 47.3049 55.3354 48.1335C55.9055 48.9555 56.2303 49.9167 56.3098 51.017H52.8695C52.7303 50.2812 52.3989 49.6681 51.8752 49.1776C51.3581 48.6804 50.6654 48.4318 49.7971 48.4318C49.0613 48.4318 48.415 48.6307 47.8581 49.0284C47.3013 49.4195 46.8671 49.983 46.5556 50.7188C46.2507 51.4545 46.0982 52.3362 46.0982 53.3636C46.0982 54.4044 46.2507 55.2992 46.5556 56.0483C46.8605 56.7907 47.2881 57.3641 47.8382 57.7685C48.3951 58.1662 49.048 58.3651 49.7971 58.3651C50.3274 58.3651 50.8013 58.2656 51.2189 58.0668C51.6432 57.8613 51.9978 57.5663 52.2828 57.1818C52.5679 56.7973 52.7634 56.33 52.8695 55.7798H56.3098C56.2237 56.8603 55.9055 57.8182 55.3553 58.6534C54.8051 59.482 54.056 60.1316 53.1081 60.6023C52.1602 61.0663 51.0466 61.2983 49.7672 61.2983ZM66.8919 45.7273V48.5114H58.112V45.7273H66.8919ZM60.2797 42.0682H63.8791V56.4062C63.8791 56.8902 63.952 57.2614 64.0978 57.5199C64.2503 57.7718 64.4492 57.9441 64.6944 58.0369C64.9397 58.1297 65.2115 58.1761 65.5098 58.1761C65.7351 58.1761 65.9406 58.1596 66.1262 58.1264C66.3185 58.0933 66.4643 58.0634 66.5637 58.0369L67.1703 60.8509C66.978 60.9171 66.7029 60.9901 66.345 61.0696C65.9937 61.1491 65.5628 61.1955 65.0524 61.2088C64.1509 61.2353 63.3388 61.0994 62.6163 60.8011C61.8938 60.4962 61.3204 60.0256 60.8961 59.3892C60.4785 58.7528 60.273 57.9574 60.2797 57.0028V42.0682ZM69.9022 61V45.7273H73.3922V48.2727H73.5513C73.8297 47.3911 74.307 46.7116 74.9831 46.2344C75.6659 45.7505 76.4448 45.5085 77.3198 45.5085C77.5186 45.5085 77.7407 45.5185 77.986 45.5384C78.2379 45.5516 78.4467 45.5748 78.6124 45.608V48.919C78.4599 48.866 78.218 48.8196 77.8865 48.7798C77.5617 48.7334 77.2469 48.7102 76.9419 48.7102C76.2857 48.7102 75.6957 48.8527 75.1721 49.1378C74.655 49.4162 74.2473 49.804 73.949 50.3011C73.6507 50.7983 73.5016 51.3717 73.5016 52.0213V61H69.9022ZM87.0368 61.2983C85.5453 61.2983 84.2527 60.9702 83.1589 60.3139C82.0652 59.6577 81.2167 58.7396 80.6135 57.5597C80.0169 56.3797 79.7186 55.0009 79.7186 53.4233C79.7186 51.8456 80.0169 50.4635 80.6135 49.277C81.2167 48.0904 82.0652 47.169 83.1589 46.5128C84.2527 45.8565 85.5453 45.5284 87.0368 45.5284C88.5282 45.5284 89.8208 45.8565 90.9146 46.5128C92.0083 47.169 92.8535 48.0904 93.4501 49.277C94.0533 50.4635 94.3549 51.8456 94.3549 53.4233C94.3549 55.0009 94.0533 56.3797 93.4501 57.5597C92.8535 58.7396 92.0083 59.6577 90.9146 60.3139C89.8208 60.9702 88.5282 61.2983 87.0368 61.2983ZM87.0566 58.4148C87.8654 58.4148 88.5415 58.1927 89.085 57.7486C89.6286 57.2978 90.033 56.6946 90.2981 55.9389C90.5699 55.1832 90.7058 54.3414 90.7058 53.4134C90.7058 52.4787 90.5699 51.6335 90.2981 50.8778C90.033 50.1155 89.6286 49.509 89.085 49.0582C88.5415 48.6075 87.8654 48.3821 87.0566 48.3821C86.228 48.3821 85.5386 48.6075 84.9885 49.0582C84.4449 49.509 84.0372 50.1155 83.7654 50.8778C83.5003 51.6335 83.3677 52.4787 83.3677 53.4134C83.3677 54.3414 83.5003 55.1832 83.7654 55.9389C84.0372 56.6946 84.4449 57.2978 84.9885 57.7486C85.5386 58.1927 86.228 58.4148 87.0566 58.4148ZM101.009 40.6364V61H97.41V40.6364H101.009ZM111.373 61.2983C109.881 61.2983 108.589 60.9702 107.495 60.3139C106.401 59.6577 105.553 58.7396 104.949 57.5597C104.353 56.3797 104.055 55.0009 104.055 53.4233C104.055 51.8456 104.353 50.4635 104.949 49.277C105.553 48.0904 106.401 47.169 107.495 46.5128C108.589 45.8565 109.881 45.5284 111.373 45.5284C112.864 45.5284 114.157 45.8565 115.251 46.5128C116.344 47.169 117.189 48.0904 117.786 49.277C118.389 50.4635 118.691 51.8456 118.691 53.4233C118.691 55.0009 118.389 56.3797 117.786 57.5597C117.189 58.7396 116.344 59.6577 115.251 60.3139C114.157 60.9702 112.864 61.2983 111.373 61.2983ZM111.393 58.4148C112.201 58.4148 112.877 58.1927 113.421 57.7486C113.965 57.2978 114.369 56.6946 114.634 55.9389C114.906 55.1832 115.042 54.3414 115.042 53.4134C115.042 52.4787 114.906 51.6335 114.634 50.8778C114.369 50.1155 113.965 49.509 113.421 49.0582C112.877 48.6075 112.201 48.3821 111.393 48.3821C110.564 48.3821 109.875 48.6075 109.324 49.0582C108.781 49.509 108.373 50.1155 108.101 50.8778C107.836 51.6335 107.704 52.4787 107.704 53.4134C107.704 54.3414 107.836 55.1832 108.101 55.9389C108.373 56.6946 108.781 57.2978 109.324 57.7486C109.875 58.1927 110.564 58.4148 111.393 58.4148ZM128.388 67.0455C127.095 67.0455 125.985 66.8698 125.057 66.5185C124.129 66.1738 123.383 65.7098 122.82 65.1264C122.256 64.5431 121.865 63.8968 121.646 63.1875L124.888 62.402C125.034 62.7003 125.246 62.9953 125.524 63.2869C125.803 63.5852 126.177 63.8305 126.648 64.0227C127.125 64.2216 127.725 64.321 128.448 64.321C129.468 64.321 130.314 64.0724 130.983 63.5753C131.653 63.0848 131.987 62.276 131.987 61.1491V58.2557H131.808C131.623 58.6269 131.351 59.008 130.993 59.3991C130.642 59.7902 130.174 60.1184 129.591 60.3835C129.014 60.6487 128.289 60.7812 127.414 60.7812C126.24 60.7812 125.176 60.5062 124.222 59.956C123.274 59.3991 122.518 58.5705 121.955 57.4702C121.398 56.3632 121.119 54.9777 121.119 53.3139C121.119 51.6368 121.398 50.2216 121.955 49.0682C122.518 47.9081 123.277 47.0298 124.232 46.4332C125.186 45.83 126.25 45.5284 127.423 45.5284C128.318 45.5284 129.054 45.6809 129.631 45.9858C130.214 46.2841 130.678 46.6454 131.023 47.0696C131.368 47.4872 131.629 47.8816 131.808 48.2528H132.007V45.7273H135.557V61.2486C135.557 62.5545 135.245 63.6349 134.622 64.4901C133.999 65.3452 133.147 65.9848 132.067 66.4091C130.986 66.8333 129.76 67.0455 128.388 67.0455ZM128.418 57.9574C129.18 57.9574 129.83 57.7718 130.367 57.4006C130.904 57.0294 131.311 56.4957 131.59 55.7997C131.868 55.1037 132.007 54.2685 132.007 53.294C132.007 52.3329 131.868 51.491 131.59 50.7685C131.318 50.0459 130.914 49.4858 130.377 49.0881C129.846 48.6837 129.193 48.4815 128.418 48.4815C127.616 48.4815 126.946 48.6903 126.409 49.108C125.872 49.5256 125.468 50.099 125.196 50.8281C124.924 51.5507 124.789 52.3726 124.789 53.294C124.789 54.2287 124.924 55.0473 125.196 55.75C125.475 56.446 125.882 56.9896 126.419 57.3807C126.963 57.7652 127.629 57.9574 128.418 57.9574ZM141.483 66.7273C140.993 66.7273 140.539 66.6875 140.121 66.608C139.71 66.535 139.382 66.4489 139.137 66.3494L139.972 63.5455C140.495 63.6979 140.963 63.7708 141.374 63.7642C141.785 63.7576 142.146 63.6283 142.458 63.3764C142.776 63.1312 143.044 62.7202 143.263 62.1435L143.571 61.3182L138.033 45.7273H141.851L145.371 57.2614H145.53L149.06 45.7273H152.888L146.773 62.8494C146.488 63.6581 146.11 64.3509 145.639 64.9276C145.169 65.5109 144.592 65.955 143.909 66.2599C143.233 66.5715 142.424 66.7273 141.483 66.7273ZM168.33 57.7386V43.9773H171.452V57.7386H168.33ZM163.01 52.419V49.2969H176.771V52.419H163.01ZM199.335 46.2344C199.242 45.366 198.851 44.6899 198.162 44.206C197.479 43.7221 196.591 43.4801 195.497 43.4801C194.728 43.4801 194.068 43.5961 193.518 43.8281C192.968 44.0601 192.547 44.375 192.256 44.7727C191.964 45.1705 191.815 45.6245 191.808 46.1349C191.808 46.5592 191.904 46.9271 192.096 47.2386C192.295 47.5502 192.564 47.8153 192.902 48.0341C193.24 48.2462 193.614 48.4252 194.025 48.571C194.436 48.7169 194.851 48.8395 195.268 48.9389L197.177 49.4162C197.946 49.5952 198.685 49.8371 199.395 50.142C200.111 50.447 200.75 50.8314 201.314 51.2955C201.884 51.7595 202.335 52.3196 202.666 52.9759C202.997 53.6321 203.163 54.401 203.163 55.2827C203.163 56.4759 202.858 57.5265 202.248 58.4347C201.639 59.3362 200.757 60.0421 199.604 60.5526C198.457 61.0563 197.068 61.3082 195.437 61.3082C193.853 61.3082 192.478 61.063 191.311 60.5724C190.151 60.0819 189.243 59.366 188.586 58.4247C187.937 57.4834 187.586 56.3366 187.532 54.9844H191.162C191.215 55.6937 191.434 56.2836 191.818 56.7543C192.202 57.2249 192.703 57.5762 193.319 57.8082C193.943 58.0402 194.639 58.1562 195.407 58.1562C196.21 58.1562 196.912 58.0369 197.515 57.7983C198.125 57.553 198.603 57.215 198.947 56.7841C199.292 56.3466 199.468 55.8362 199.474 55.2528C199.468 54.7225 199.312 54.285 199.007 53.9403C198.702 53.589 198.274 53.2973 197.724 53.0653C197.181 52.8267 196.544 52.6146 195.815 52.429L193.498 51.8324C191.821 51.4015 190.496 50.7486 189.521 49.8736C188.553 48.992 188.069 47.822 188.069 46.3636C188.069 45.1638 188.394 44.1132 189.044 43.2116C189.7 42.3101 190.592 41.6108 191.719 41.1136C192.845 40.6098 194.122 40.358 195.547 40.358C196.992 40.358 198.258 40.6098 199.345 41.1136C200.439 41.6108 201.297 42.3035 201.92 43.1918C202.543 44.0734 202.865 45.0876 202.885 46.2344H199.335ZM209.574 56.2074L209.564 51.8622H210.141L215.629 45.7273H219.835L213.084 53.2443H212.338L209.574 56.2074ZM206.293 61V40.6364H209.892V61H206.293ZM215.878 61L210.906 54.0497L213.333 51.5142L220.183 61H215.878ZM222.234 61V45.7273H225.834V61H222.234ZM224.044 43.5597C223.474 43.5597 222.983 43.3707 222.572 42.9929C222.161 42.6084 221.956 42.1477 221.956 41.6108C221.956 41.0672 222.161 40.6065 222.572 40.2287C222.983 39.8442 223.474 39.652 224.044 39.652C224.621 39.652 225.111 39.8442 225.515 40.2287C225.926 40.6065 226.132 41.0672 226.132 41.6108C226.132 42.1477 225.926 42.6084 225.515 42.9929C225.111 43.3707 224.621 43.5597 224.044 43.5597ZM233.134 52.0511V61H229.535V45.7273H232.975V48.3224H233.154C233.506 47.4673 234.066 46.7879 234.835 46.2841C235.61 45.7803 236.568 45.5284 237.708 45.5284C238.762 45.5284 239.68 45.7538 240.463 46.2045C241.251 46.6553 241.861 47.3082 242.292 48.1634C242.73 49.0185 242.945 50.0559 242.938 51.2756V61H239.339V51.8324C239.339 50.8116 239.074 50.0128 238.544 49.4361C238.02 48.8594 237.294 48.571 236.366 48.571C235.736 48.571 235.176 48.7102 234.686 48.9886C234.202 49.2604 233.82 49.6548 233.542 50.1719C233.27 50.6889 233.134 51.3153 233.134 52.0511ZM271.132 47.5071H267.414C267.307 46.8973 267.112 46.357 266.827 45.8864C266.542 45.4091 266.187 45.0047 265.763 44.6733C265.339 44.3419 264.855 44.0933 264.311 43.9276C263.774 43.7552 263.194 43.669 262.571 43.669C261.464 43.669 260.483 43.9474 259.628 44.5043C258.773 45.0544 258.103 45.8632 257.619 46.9304C257.136 47.991 256.894 49.2869 256.894 50.8182C256.894 52.3759 257.136 53.6884 257.619 54.7557C258.11 55.8163 258.78 56.6184 259.628 57.1619C260.483 57.6989 261.461 57.9673 262.561 57.9673C263.171 57.9673 263.741 57.8878 264.271 57.7287C264.808 57.563 265.289 57.321 265.713 57.0028C266.144 56.6847 266.505 56.2936 266.797 55.8295C267.095 55.3655 267.301 54.8352 267.414 54.2386L271.132 54.2585C270.993 55.2263 270.691 56.1345 270.227 56.983C269.77 57.8314 269.17 58.5805 268.428 59.2301C267.685 59.8731 266.817 60.3769 265.823 60.7415C264.828 61.0994 263.725 61.2784 262.512 61.2784C260.722 61.2784 259.124 60.8641 257.719 60.0355C256.314 59.2069 255.207 58.0104 254.398 56.446C253.589 54.8816 253.185 53.0057 253.185 50.8182C253.185 48.6241 253.593 46.7481 254.408 45.1903C255.223 43.6259 256.334 42.4295 257.739 41.6009C259.144 40.7723 260.735 40.358 262.512 40.358C263.645 40.358 264.699 40.517 265.673 40.8352C266.648 41.1534 267.516 41.6207 268.279 42.2372C269.041 42.8471 269.667 43.5961 270.158 44.4844C270.655 45.366 270.98 46.3736 271.132 47.5071ZM278.746 61.3082C277.778 61.3082 276.907 61.1359 276.131 60.7912C275.362 60.4399 274.752 59.9228 274.302 59.2401C273.858 58.5573 273.635 57.7154 273.635 56.7145C273.635 55.8527 273.795 55.1402 274.113 54.5767C274.431 54.0133 274.865 53.5625 275.415 53.2244C275.965 52.8864 276.585 52.6312 277.275 52.4588C277.971 52.2798 278.69 52.1506 279.432 52.071C280.327 51.9782 281.053 51.8954 281.61 51.8224C282.167 51.7429 282.571 51.6236 282.823 51.4645C283.081 51.2988 283.211 51.0436 283.211 50.6989V50.6392C283.211 49.8902 282.989 49.3101 282.545 48.8991C282.1 48.4882 281.461 48.2827 280.626 48.2827C279.744 48.2827 279.045 48.4749 278.528 48.8594C278.017 49.2438 277.672 49.6979 277.493 50.2216L274.133 49.7443C274.398 48.8163 274.835 48.0407 275.445 47.4176C276.055 46.7879 276.801 46.3172 277.682 46.0057C278.564 45.6875 279.538 45.5284 280.606 45.5284C281.341 45.5284 282.074 45.6146 282.803 45.7869C283.532 45.9593 284.198 46.2443 284.802 46.642C285.405 47.0331 285.889 47.5668 286.253 48.2429C286.625 48.919 286.81 49.7642 286.81 50.7784V61H283.35V58.902H283.231C283.012 59.3262 282.704 59.724 282.306 60.0952C281.915 60.4598 281.421 60.7547 280.824 60.9801C280.234 61.1989 279.542 61.3082 278.746 61.3082ZM279.681 58.6634C280.403 58.6634 281.03 58.5208 281.56 58.2358C282.09 57.9441 282.498 57.5597 282.783 57.0824C283.075 56.6051 283.221 56.0848 283.221 55.5213V53.7216C283.108 53.8144 282.916 53.9006 282.644 53.9801C282.379 54.0597 282.081 54.1293 281.749 54.1889C281.418 54.2486 281.09 54.3016 280.765 54.348C280.44 54.3944 280.158 54.4342 279.92 54.4673C279.383 54.5402 278.902 54.6596 278.478 54.8253C278.054 54.991 277.719 55.223 277.474 55.5213C277.228 55.813 277.106 56.1908 277.106 56.6548C277.106 57.3177 277.348 57.8182 277.831 58.1562C278.315 58.4943 278.932 58.6634 279.681 58.6634ZM290.43 61V45.7273H293.92V48.2727H294.079C294.357 47.3911 294.834 46.7116 295.51 46.2344C296.193 45.7505 296.972 45.5085 297.847 45.5085C298.046 45.5085 298.268 45.5185 298.513 45.5384C298.765 45.5516 298.974 45.5748 299.14 45.608V48.919C298.987 48.866 298.745 48.8196 298.414 48.7798C298.089 48.7334 297.774 48.7102 297.469 48.7102C296.813 48.7102 296.223 48.8527 295.699 49.1378C295.182 49.4162 294.775 49.804 294.476 50.3011C294.178 50.7983 294.029 51.3717 294.029 52.0213V61H290.43ZM307.664 61.2983C306.132 61.2983 304.81 60.9801 303.696 60.3438C302.589 59.7008 301.737 58.7926 301.141 57.6193C300.544 56.4394 300.246 55.0507 300.246 53.4531C300.246 51.8821 300.544 50.5033 301.141 49.3168C301.744 48.1236 302.586 47.1955 303.666 46.5327C304.747 45.8632 306.016 45.5284 307.475 45.5284C308.416 45.5284 309.304 45.6809 310.139 45.9858C310.981 46.2841 311.724 46.7481 312.367 47.3778C313.016 48.0076 313.527 48.8097 313.898 49.7841C314.269 50.7519 314.455 51.9053 314.455 53.2443V54.348H301.936V51.9219H311.004C310.998 51.2325 310.849 50.6193 310.557 50.0824C310.265 49.5388 309.858 49.1113 309.334 48.7997C308.817 48.4882 308.214 48.3324 307.524 48.3324C306.789 48.3324 306.142 48.5114 305.585 48.8693C305.029 49.2206 304.594 49.6847 304.283 50.2614C303.978 50.8314 303.822 51.4579 303.816 52.1406V54.2585C303.816 55.1468 303.978 55.9091 304.303 56.5455C304.628 57.1752 305.082 57.6591 305.665 57.9972C306.248 58.3286 306.931 58.4943 307.713 58.4943C308.237 58.4943 308.711 58.4214 309.135 58.2756C309.559 58.1231 309.927 57.901 310.239 57.6094C310.55 57.3177 310.786 56.9564 310.945 56.5256L314.306 56.9034C314.093 57.7917 313.689 58.5672 313.093 59.2301C312.503 59.8864 311.747 60.3968 310.825 60.7614C309.904 61.1193 308.85 61.2983 307.664 61.2983Z" fill="#f2f2f2"/>
<path d="M97.2409 6.63636V27H93.9597L84.3645 13.1293H84.1955V27H80.5066V6.63636H83.8077L93.3929 20.517H93.5719V6.63636H97.2409ZM105.496 27.3082C104.528 27.3082 103.657 27.1359 102.881 26.7912C102.112 26.4399 101.502 25.9228 101.052 25.2401C100.608 24.5573 100.385 23.7154 100.385 22.7145C100.385 21.8527 100.545 21.1402 100.863 20.5767C101.181 20.0133 101.615 19.5625 102.165 19.2244C102.715 18.8864 103.335 18.6312 104.025 18.4588C104.721 18.2798 105.44 18.1506 106.182 18.071C107.077 17.9782 107.803 17.8954 108.36 17.8224C108.917 17.7429 109.321 17.6236 109.573 17.4645C109.831 17.2988 109.961 17.0436 109.961 16.6989V16.6392C109.961 15.8902 109.739 15.3101 109.295 14.8991C108.85 14.4882 108.211 14.2827 107.376 14.2827C106.494 14.2827 105.795 14.4749 105.278 14.8594C104.767 15.2438 104.422 15.6979 104.243 16.2216L100.883 15.7443C101.148 14.8163 101.585 14.0407 102.195 13.4176C102.805 12.7879 103.551 12.3172 104.432 12.0057C105.314 11.6875 106.288 11.5284 107.356 11.5284C108.091 11.5284 108.824 11.6146 109.553 11.7869C110.282 11.9593 110.948 12.2443 111.552 12.642C112.155 13.0331 112.639 13.5668 113.003 14.2429C113.375 14.919 113.56 15.7642 113.56 16.7784V27H110.1V24.902H109.981C109.762 25.3262 109.454 25.724 109.056 26.0952C108.665 26.4598 108.171 26.7547 107.574 26.9801C106.984 27.1989 106.292 27.3082 105.496 27.3082ZM106.431 24.6634C107.153 24.6634 107.78 24.5208 108.31 24.2358C108.84 23.9441 109.248 23.5597 109.533 23.0824C109.825 22.6051 109.971 22.0848 109.971 21.5213V19.7216C109.858 19.8144 109.666 19.9006 109.394 19.9801C109.129 20.0597 108.831 20.1293 108.499 20.1889C108.168 20.2486 107.84 20.3016 107.515 20.348C107.19 20.3944 106.908 20.4342 106.67 20.4673C106.133 20.5402 105.652 20.6596 105.228 20.8253C104.804 20.991 104.469 21.223 104.224 21.5213C103.978 21.813 103.856 22.1908 103.856 22.6548C103.856 23.3177 104.098 23.8182 104.581 24.1562C105.065 24.4943 105.682 24.6634 106.431 24.6634ZM117.18 32.7273V11.7273H120.719V14.2528H120.928C121.114 13.8816 121.376 13.4872 121.714 13.0696C122.052 12.6454 122.509 12.2841 123.086 11.9858C123.662 11.6809 124.398 11.5284 125.293 11.5284C126.473 11.5284 127.537 11.83 128.485 12.4332C129.439 13.0298 130.195 13.9148 130.752 15.0881C131.315 16.2547 131.597 17.6866 131.597 19.3835C131.597 21.0606 131.322 22.4858 130.772 23.6591C130.222 24.8324 129.473 25.7273 128.525 26.3438C127.577 26.9602 126.503 27.2685 125.303 27.2685C124.428 27.2685 123.702 27.1226 123.126 26.831C122.549 26.5393 122.085 26.188 121.733 25.777C121.389 25.3594 121.12 24.965 120.928 24.5938H120.779V32.7273H117.18ZM120.709 19.3636C120.709 20.3513 120.849 21.2164 121.127 21.9588C121.412 22.7012 121.82 23.2812 122.35 23.6989C122.887 24.1098 123.537 24.3153 124.299 24.3153C125.094 24.3153 125.76 24.1032 126.297 23.679C126.834 23.2481 127.239 22.6615 127.51 21.919C127.789 21.17 127.928 20.3182 127.928 19.3636C127.928 18.4157 127.792 17.5739 127.52 16.8381C127.249 16.1023 126.844 15.5256 126.307 15.108C125.77 14.6903 125.101 14.4815 124.299 14.4815C123.53 14.4815 122.877 14.6837 122.34 15.0881C121.803 15.4924 121.395 16.0592 121.117 16.7884C120.845 17.5175 120.709 18.3759 120.709 19.3636ZM139.074 27.3082C138.107 27.3082 137.235 27.1359 136.459 26.7912C135.69 26.4399 135.081 25.9228 134.63 25.2401C134.186 24.5573 133.964 23.7154 133.964 22.7145C133.964 21.8527 134.123 21.1402 134.441 20.5767C134.759 20.0133 135.193 19.5625 135.743 19.2244C136.294 18.8864 136.913 18.6312 137.603 18.4588C138.299 18.2798 139.018 18.1506 139.76 18.071C140.655 17.9782 141.381 17.8954 141.938 17.8224C142.495 17.7429 142.899 17.6236 143.151 17.4645C143.41 17.2988 143.539 17.0436 143.539 16.6989V16.6392C143.539 15.8902 143.317 15.3101 142.873 14.8991C142.429 14.4882 141.789 14.2827 140.954 14.2827C140.072 14.2827 139.373 14.4749 138.856 14.8594C138.345 15.2438 138.001 15.6979 137.822 16.2216L134.461 15.7443C134.726 14.8163 135.163 14.0407 135.773 13.4176C136.383 12.7879 137.129 12.3172 138.01 12.0057C138.892 11.6875 139.867 11.5284 140.934 11.5284C141.67 11.5284 142.402 11.6146 143.131 11.7869C143.86 11.9593 144.527 12.2443 145.13 12.642C145.733 13.0331 146.217 13.5668 146.581 14.2429C146.953 14.919 147.138 15.7642 147.138 16.7784V27H143.678V24.902H143.559C143.34 25.3262 143.032 25.724 142.634 26.0952C142.243 26.4598 141.749 26.7547 141.153 26.9801C140.563 27.1989 139.87 27.3082 139.074 27.3082ZM140.009 24.6634C140.732 24.6634 141.358 24.5208 141.888 24.2358C142.419 23.9441 142.826 23.5597 143.111 23.0824C143.403 22.6051 143.549 22.0848 143.549 21.5213V19.7216C143.436 19.8144 143.244 19.9006 142.972 19.9801C142.707 20.0597 142.409 20.1293 142.077 20.1889C141.746 20.2486 141.418 20.3016 141.093 20.348C140.768 20.3944 140.486 20.4342 140.248 20.4673C139.711 20.5402 139.23 20.6596 138.806 20.8253C138.382 20.991 138.047 21.223 137.802 21.5213C137.556 21.813 137.434 22.1908 137.434 22.6548C137.434 23.3177 137.676 23.8182 138.16 24.1562C138.644 24.4943 139.26 24.6634 140.009 24.6634ZM160.586 6.63636L165.886 22.6648H166.095L171.385 6.63636H175.442L168.263 27H163.709L156.54 6.63636H160.586ZM180.774 27.3082C179.806 27.3082 178.934 27.1359 178.159 26.7912C177.39 26.4399 176.78 25.9228 176.329 25.2401C175.885 24.5573 175.663 23.7154 175.663 22.7145C175.663 21.8527 175.822 21.1402 176.14 20.5767C176.458 20.0133 176.892 19.5625 177.443 19.2244C177.993 18.8864 178.613 18.6312 179.302 18.4588C179.998 18.2798 180.717 18.1506 181.46 18.071C182.355 17.9782 183.08 17.8954 183.637 17.8224C184.194 17.7429 184.598 17.6236 184.85 17.4645C185.109 17.2988 185.238 17.0436 185.238 16.6989V16.6392C185.238 15.8902 185.016 15.3101 184.572 14.8991C184.128 14.4882 183.488 14.2827 182.653 14.2827C181.771 14.2827 181.072 14.4749 180.555 14.8594C180.044 15.2438 179.7 15.6979 179.521 16.2216L176.16 15.7443C176.425 14.8163 176.863 14.0407 177.472 13.4176C178.082 12.7879 178.828 12.3172 179.71 12.0057C180.591 11.6875 181.566 11.5284 182.633 11.5284C183.369 11.5284 184.101 11.6146 184.83 11.7869C185.56 11.9593 186.226 12.2443 186.829 12.642C187.432 13.0331 187.916 13.5668 188.281 14.2429C188.652 14.919 188.838 15.7642 188.838 16.7784V27H185.377V24.902H185.258C185.039 25.3262 184.731 25.724 184.333 26.0952C183.942 26.4598 183.448 26.7547 182.852 26.9801C182.262 27.1989 181.569 27.3082 180.774 27.3082ZM181.708 24.6634C182.431 24.6634 183.057 24.5208 183.588 24.2358C184.118 23.9441 184.526 23.5597 184.811 23.0824C185.102 22.6051 185.248 22.0848 185.248 21.5213V19.7216C185.135 19.8144 184.943 19.9006 184.671 19.9801C184.406 20.0597 184.108 20.1293 183.776 20.1889C183.445 20.2486 183.117 20.3016 182.792 20.348C182.467 20.3944 182.186 20.4342 181.947 20.4673C181.41 20.5402 180.929 20.6596 180.505 20.8253C180.081 20.991 179.746 21.223 179.501 21.5213C179.256 21.813 179.133 22.1908 179.133 22.6548C179.133 23.3177 179.375 23.8182 179.859 24.1562C180.343 24.4943 180.959 24.6634 181.708 24.6634ZM196.056 6.63636V27H192.457V6.63636H196.056ZM203.357 6.63636V27H199.758V6.63636H203.357ZM213.82 27.2983C212.289 27.2983 210.966 26.9801 209.852 26.3438C208.745 25.7008 207.894 24.7926 207.297 23.6193C206.7 22.4394 206.402 21.0507 206.402 19.4531C206.402 17.8821 206.7 16.5033 207.297 15.3168C207.9 14.1236 208.742 13.1955 209.823 12.5327C210.903 11.8632 212.173 11.5284 213.631 11.5284C214.572 11.5284 215.46 11.6809 216.296 11.9858C217.137 12.2841 217.88 12.7481 218.523 13.3778C219.173 14.0076 219.683 14.8097 220.054 15.7841C220.425 16.7519 220.611 17.9053 220.611 19.2443V20.348H208.093V17.9219H217.161C217.154 17.2325 217.005 16.6193 216.713 16.0824C216.422 15.5388 216.014 15.1113 215.49 14.7997C214.973 14.4882 214.37 14.3324 213.681 14.3324C212.945 14.3324 212.298 14.5114 211.742 14.8693C211.185 15.2206 210.751 15.6847 210.439 16.2614C210.134 16.8314 209.978 17.4579 209.972 18.1406V20.2585C209.972 21.1468 210.134 21.9091 210.459 22.5455C210.784 23.1752 211.238 23.6591 211.821 23.9972C212.405 24.3286 213.087 24.4943 213.869 24.4943C214.393 24.4943 214.867 24.4214 215.291 24.2756C215.716 24.1231 216.084 23.901 216.395 23.6094C216.707 23.3177 216.942 22.9564 217.101 22.5256L220.462 22.9034C220.25 23.7917 219.845 24.5672 219.249 25.2301C218.659 25.8864 217.903 26.3968 216.982 26.7614C216.06 27.1193 215.006 27.2983 213.82 27.2983ZM225.456 32.7273C224.965 32.7273 224.511 32.6875 224.094 32.608C223.683 32.535 223.354 32.4489 223.109 32.3494L223.944 29.5455C224.468 29.6979 224.935 29.7708 225.346 29.7642C225.757 29.7576 226.119 29.6283 226.43 29.3764C226.748 29.1312 227.017 28.7202 227.236 28.1435L227.544 27.3182L222.006 11.7273H225.824L229.344 23.2614H229.503L233.032 11.7273H236.861L230.746 28.8494C230.461 29.6581 230.083 30.3509 229.612 30.9276C229.141 31.5109 228.565 31.955 227.882 32.2599C227.206 32.5715 226.397 32.7273 225.456 32.7273Z" fill="#f2f2f2"/>
</svg>
